<svg width="183" height="130" viewBox="0 0 183 130" fill="none" xmlns="http://www.w3.org/2000/svg">
<path d="M48.8996 94.0172L42.4314 104.423L57.0311 114.568L72.2962 100.186C72.2962 100.186 64.2386 79.0779 61.984 77.5543C59.7293 76.0306 48.8996 94.0172 48.8996 94.0172Z" fill="white"/>
<path d="M57.031 114.865C56.9941 114.865 56.9202 114.865 56.8832 114.828L42.2835 104.682C42.1726 104.608 42.1356 104.459 42.2095 104.311L48.6778 93.9053C49.0844 93.2364 58.2877 77.9998 61.3925 77.2938C61.6512 77.2194 61.873 77.2566 62.0948 77.4052C64.4233 78.9661 72.1852 99.2939 72.5179 100.149C72.5548 100.26 72.5179 100.372 72.4439 100.446L57.1789 114.828C57.1789 114.828 57.105 114.865 57.031 114.865ZM42.8009 104.385L57.031 114.27L72.0004 100.149C69.7088 94.2026 63.6102 79.0032 61.836 77.814C61.7251 77.7397 61.6143 77.7397 61.5403 77.7769C59.1378 78.3343 51.7825 89.7803 49.1583 94.1655L42.8009 104.385Z" fill="#263238"/>
<path d="M41.1749 64.9935C41.1749 64.9935 40.2879 71.8685 43.2078 74.953C46.1278 78.0375 56.0334 78.8922 56.6248 79.9327C57.2162 80.9733 68.0089 108.362 69.5982 109.96C71.1876 111.558 77.7667 109.068 82.7195 104.386C82.7195 104.386 71.4093 79.0408 71.0397 76.8483C70.6701 74.6557 74.2923 65.2908 74.2923 61.0171L41.1749 64.9935Z" fill="white"/>
<path d="M71.1503 110.704C70.522 110.741 69.8936 110.555 69.3762 110.146C68.3043 109.068 63.6841 97.8454 59.027 86.4365C57.6225 83.0176 56.5136 80.3419 56.3658 80.0446C56.2179 79.7473 54.3699 79.3013 52.7436 78.9297C49.417 78.1493 44.8708 77.0716 42.9858 75.102C40.0288 71.9804 40.842 65.2168 40.879 64.9195C40.879 64.808 40.9898 64.6965 41.1007 64.6965L74.1812 60.7573C74.329 60.7573 74.4399 60.8316 74.4768 60.9803C74.4768 60.9803 74.4768 60.9803 74.4768 61.0175C74.4768 63.2472 73.4789 66.8891 72.5918 70.1222C71.7787 73.0581 71.0394 75.8081 71.2242 76.8115C71.5939 78.9669 82.7932 104.051 82.904 104.274C82.941 104.386 82.941 104.497 82.8301 104.572C79.0601 108.214 74.0333 110.704 71.1503 110.704ZM41.3964 65.2168C41.2855 66.3688 40.879 72.0918 43.3923 74.7675C45.1665 76.6257 49.6018 77.6662 52.8914 78.4466C55.3678 79.0412 56.5875 79.3385 56.8463 79.7845C57.0311 80.0818 57.8812 82.2 59.5444 86.2507C62.7231 94.092 68.7109 108.66 69.7827 109.774C71.2242 111.224 77.5816 108.845 82.3866 104.312C81.3147 101.896 71.1503 79.0041 70.7437 76.8858C70.522 75.7709 71.2612 73.0952 72.1113 69.9736C72.9245 66.9263 73.8855 63.5073 73.9594 61.3148L41.3964 65.2168Z" fill="#263238"/>
<path d="M78.8015 106.393C78.6906 106.393 78.6167 106.318 78.5797 106.244L66.6782 75.9568C66.6412 75.8081 66.6782 75.6595 66.826 75.6223C66.9739 75.5851 67.1217 75.6223 67.1587 75.7709L79.0602 106.058C79.0972 106.207 79.0602 106.356 78.9124 106.393C78.8385 106.393 78.8385 106.43 78.8015 106.393Z" fill="#D1D3D4"/>
<path d="M70.1527 65.4766C69.1177 66.8145 68.4894 68.4125 68.3785 70.1219C68.2676 72.7605 71.5202 78.372 71.5202 78.372L79.0603 73.6152L75.4012 64.7334L70.1527 65.4766Z" fill="#263238"/>
<path d="M71.5201 78.6315H71.4462C71.3723 78.6315 71.3353 78.5571 71.2984 78.52C71.1505 78.297 68.0088 72.797 68.1197 70.1213C68.2306 68.3747 68.8589 66.7024 69.9308 65.3273C69.9678 65.2902 70.0417 65.253 70.0786 65.253L75.2902 64.5098C75.4011 64.5098 75.512 64.5469 75.5859 64.6584L79.2451 73.5402C79.282 73.6517 79.2451 73.8004 79.1342 73.8747L71.5941 78.6315C71.631 78.6315 71.5571 78.6315 71.5201 78.6315ZM70.3004 65.7361C69.3394 66.9996 68.748 68.5605 68.6372 70.1213C68.5632 72.351 71.0027 76.922 71.5941 77.9997L78.7276 73.5031L75.2163 64.9929L70.3004 65.7361Z" fill="#263238"/>
<path d="M79.6886 97.5858C79.6886 97.5858 84.9001 93.0892 81.9802 90.7108C81.9802 90.7108 83.8652 86.3628 79.0602 85.731C79.0602 85.731 80.6126 80.9371 76.8425 79.7851C73.0725 78.633 65.6432 84.8391 64.8671 87.106C64.0909 89.3729 67.3804 89.7446 69.8199 88.6669C69.8199 88.6669 66.2716 90.748 66.8999 92.2344C67.787 94.427 70.7809 93.3493 73.1094 92.6804C73.1094 92.6804 68.8589 95.0216 71.6679 97.2142C73.8117 98.8865 78.8385 95.5419 78.8385 95.5419L79.6886 97.5858Z" fill="white"/>
<path d="M73.1832 97.9569C72.5548 97.9941 71.9635 97.8082 71.446 97.4366C70.7068 96.842 70.3372 96.1731 70.4111 95.467C70.485 94.6495 71.0764 93.9062 71.6678 93.3859C69.5979 93.9434 67.3803 94.315 66.6041 92.3825C66.1975 91.3792 67.2694 90.2271 68.2673 89.4467C66.8998 89.6697 65.6061 89.4839 64.9778 88.8893C64.6451 88.5548 64.3125 87.9974 64.6451 87.0683C65.4583 84.7271 73.0353 78.3723 76.9163 79.5987C77.8773 79.8588 78.6904 80.5277 79.1709 81.4196C79.9471 82.9433 79.6145 84.8757 79.3927 85.619C80.7603 85.842 81.6843 86.4366 82.2018 87.3285C82.941 88.6291 82.4975 90.2271 82.2757 90.7474C82.7931 91.1933 83.0888 91.8623 83.1258 92.5684C83.1628 94.9839 79.9841 97.7711 79.8732 97.8826C79.7993 97.9197 79.7253 97.9569 79.6514 97.9197C79.5775 97.8826 79.5036 97.8454 79.4666 97.7711L78.6904 96.0245C77.8403 96.4332 75.29 97.9569 73.1832 97.9569ZM73.0723 92.4197C73.2202 92.4197 73.331 92.5312 73.331 92.6798C73.331 92.7913 73.2941 92.8656 73.1832 92.9028C73.1462 92.9028 71.0025 94.1292 70.9285 95.5042C70.8916 96.0244 71.1873 96.5447 71.7787 97.0278C73.7746 98.5887 78.5796 95.3555 78.6535 95.3555C78.7274 95.3184 78.8013 95.3184 78.8752 95.3184C78.9492 95.3555 79.0231 95.3927 79.0231 95.467L79.7623 97.1765C80.5015 96.4704 82.6083 94.2778 82.5714 92.494C82.5714 91.8994 82.2757 91.3048 81.7952 90.9704C81.7213 90.896 81.6843 90.7846 81.7213 90.6731C81.7213 90.6731 82.4605 88.8893 81.7213 87.5514C81.2777 86.7339 80.3537 86.2507 79.0231 86.0649C78.8752 86.0649 78.8013 85.9163 78.8013 85.7676V85.7305C78.8013 85.6933 79.5405 83.3521 78.6535 81.6426C78.2469 80.8622 77.5446 80.3048 76.7315 80.0818C73.1462 78.9669 65.8648 85.0616 65.1256 87.2541C64.9408 87.6629 65.0147 88.1832 65.3474 88.5177C66.1236 89.2237 68.1195 89.1866 69.7088 88.4805C69.8197 88.4062 69.9675 88.4805 70.0415 88.592C70.1154 88.7035 70.0784 88.8521 69.9306 88.9264C69.0435 89.4467 66.678 91.119 67.0846 92.1596C67.8238 93.9805 70.3002 93.2373 72.4809 92.6055L72.9614 92.4569L73.0723 92.4197Z" fill="#263238"/>
<path d="M75.5489 71.833C75.5489 71.833 75.6967 67.4479 72.0006 69.083C68.3045 70.7182 62.7233 74.583 65.6432 77.1472C68.5632 79.7114 74.6618 75.1776 75.5489 71.833Z" fill="white"/>
<path d="M67.7132 78.1867C66.8631 78.2239 66.0869 77.9266 65.4216 77.3692C64.7563 76.8489 64.4236 76.0313 64.5715 75.2138C64.9781 72.5752 69.5243 69.8995 71.8529 68.859C72.9617 68.3759 73.8857 68.3387 74.588 68.8218C75.8447 69.6766 75.7708 71.7577 75.7708 71.8691C75.7708 71.9063 75.7708 71.9063 75.7708 71.9435C75.1424 74.2847 72.1486 77.109 69.3395 77.9638C68.859 78.1124 68.3046 78.1867 67.7132 78.1867ZM73.4422 69.0076C72.9617 69.0076 72.5182 69.1563 72.0746 69.3421C69.4504 70.4941 65.4216 73.0583 65.0889 75.2881C64.9781 75.957 65.2737 76.5888 65.7912 76.9975C66.8261 77.9266 68.2307 77.7408 69.2286 77.4435C71.8159 76.6631 74.6989 73.9874 75.2903 71.832C75.2903 71.609 75.2533 69.8995 74.3293 69.2678C74.0706 69.082 73.7749 69.0076 73.4422 69.0076Z" fill="#263238"/>
<path d="M47.7909 95.8013C47.7909 95.8013 51.9306 84.2438 52.8546 82.2742C54.407 78.9667 58.1031 74.5444 61.2818 75.4735C64.4605 76.4025 71.1135 79.487 68.4153 81.6053C65.9389 83.5377 60.2469 80.639 60.2469 80.639C60.2469 80.639 61.6884 86.7708 58.8054 90.1898" fill="white"/>
<path d="M47.7907 96.0604C47.7537 96.0604 47.7168 96.0604 47.7168 96.0604C47.5689 96.0233 47.532 95.8746 47.5689 95.726C47.7537 95.2429 51.7086 84.1313 52.6326 82.1617C54.2589 78.7056 58.029 74.2461 61.3555 75.2124C63.6471 75.8813 68.8587 78.0739 69.2653 80.2293C69.3761 80.861 69.0804 81.4556 68.563 81.7901C66.3823 83.4996 62.0208 81.7529 60.5793 81.084C60.875 82.6448 61.4294 87.4016 58.953 90.3374C58.8791 90.4489 58.6943 90.4489 58.5834 90.3746C58.4725 90.2631 58.4725 90.1145 58.5465 90.003C61.3186 86.6955 59.951 80.7495 59.951 80.6752C59.914 80.5637 59.951 80.4894 60.0249 80.4151C60.0988 80.3408 60.2097 80.3408 60.2836 80.3779C60.3206 80.4151 65.9018 83.1651 68.1934 81.3813C68.563 81.1583 68.7478 80.7495 68.7108 80.3036C68.3782 78.6685 64.0537 76.513 61.1707 75.6955C58.1768 74.8407 54.5546 79.1516 53.0392 82.3475C52.1152 84.28 48.0125 95.726 47.9755 95.8375C47.9755 95.9861 47.9016 96.0604 47.7907 96.0604Z" fill="#263238"/>
<path d="M111.401 81.5685C111.401 81.5685 90.2965 65.44 77.8035 65.1427C74.6618 65.1055 71.4832 65.2914 68.3784 65.663C61.0231 66.5177 53.5939 68.0414 48.4562 68.2643C38.2549 68.636 30.6408 65.3657 30.6039 54.6629C30.6039 45.521 34.8914 43.8115 43.9839 41.3216C48.4932 40.0581 57.1421 38.7946 65.3476 36.4905C70.3374 35.0783 75.1793 33.3317 78.7645 30.9533C88.3006 24.71 95.3972 10.4397 95.3972 10.4397L111.401 81.5685Z" fill="white"/>
<path d="M111.401 81.8283C111.328 81.8283 111.291 81.8283 111.254 81.7911C111.032 81.6424 90.0378 65.6998 77.8035 65.4025C74.6618 65.3653 71.5201 65.5511 68.4154 65.9228C65.3845 66.2572 62.3537 66.7403 59.4707 67.1863C55.368 67.818 51.524 68.4126 48.4932 68.5241C41.8401 68.7843 36.9612 67.4464 33.9674 64.5478C31.5649 62.2437 30.3821 58.9362 30.3452 54.6626C30.3452 45.2605 35.0023 43.5139 43.91 41.0611C45.795 40.5409 48.4562 40.0206 51.4871 39.3888C55.7376 38.5341 60.5056 37.5679 65.2736 36.23C71.1135 34.5949 75.475 32.8111 78.6167 30.73C87.9679 24.5982 95.0645 10.4765 95.1384 10.3278C95.1754 10.2164 95.2863 10.1792 95.3972 10.1792C95.508 10.1792 95.582 10.2907 95.6189 10.365L111.623 81.4566C111.66 81.5681 111.623 81.6796 111.512 81.7539C111.512 81.8282 111.438 81.8283 111.401 81.8283ZM76.6947 64.8822C77.0643 64.8822 77.4709 64.8822 77.8035 64.8822C83.0151 64.9937 90.2965 67.818 99.389 73.2437C104.896 76.514 109.442 79.7843 110.958 80.9364L95.2863 11.2197C93.7709 14.0441 87.2287 25.7131 78.9124 31.1759C75.7337 33.257 71.2983 35.078 65.4215 36.7503C60.6535 38.0881 55.8485 39.0544 51.5979 39.9091C48.5671 40.5037 45.9429 41.0611 44.0578 41.5814C35.1501 44.0341 30.8626 45.6321 30.8626 54.6997C30.8626 58.8247 32.0454 62.0207 34.3 64.2133C37.183 67.0005 41.951 68.3011 48.4193 68.041C51.4131 67.9295 55.2941 67.3349 59.3598 66.7032C62.2798 66.2572 65.3106 65.8113 68.3414 65.4396C71.1135 65.068 73.9226 64.8822 76.6947 64.8822Z" fill="#263238"/>
<path d="M70.1526 65.4761C62.7603 66.3309 53.5939 67.7802 48.4563 68.2633C36.7395 69.341 31.3062 66.814 30.6039 56.1484C29.9017 45.1483 34.8915 43.8105 43.9839 41.3206C48.4932 40.0571 57.1422 38.7936 65.3476 36.4895C65.3476 36.4895 62.2798 42.2497 63.6104 52.395C64.2757 57.3376 66.6043 61.9457 70.1526 65.4761Z" fill="#263238"/>
<path d="M44.0209 68.7478C39.4377 68.7478 36.2959 67.893 34.1891 66.0349C31.8606 64.0282 30.6408 60.9065 30.3452 56.1497C29.6429 45.001 34.6696 43.5888 43.7991 41.0618L43.91 41.0246C45.795 40.5044 48.4562 39.9841 51.4871 39.3523C55.7376 38.4976 60.5056 37.5314 65.2737 36.1935C65.3845 36.1564 65.4954 36.1935 65.5324 36.2679C65.6063 36.3422 65.6063 36.4537 65.5693 36.5652C65.5324 36.6023 62.5385 42.3625 63.8691 52.322C64.5344 57.2274 66.826 61.7612 70.3374 65.2545C70.4482 65.366 70.4482 65.5146 70.3743 65.6261C70.3374 65.6633 70.2634 65.7005 70.2265 65.7005C66.826 66.1092 63.056 66.5924 59.4338 67.1126C55.2571 67.7072 51.2653 68.2275 48.5301 68.4876C46.8669 68.6735 45.3884 68.7478 44.0209 68.7478ZM64.8671 36.8996C60.2839 38.1631 55.7007 39.0922 51.5979 39.9098C48.5671 40.5044 45.9429 41.0618 44.0578 41.5821L43.9469 41.6192C35.0762 44.072 30.1603 45.447 30.8626 56.1497C31.1583 60.7579 32.3411 63.768 34.5218 65.6633C37.146 67.9302 41.4336 68.6734 48.4193 68.0045C51.1544 67.7444 55.1093 67.2241 59.3229 66.6295C62.7603 66.1464 66.3086 65.6633 69.5612 65.2917C66.1977 61.7612 64.017 57.2646 63.3517 52.4335C62.2428 44.0348 64.1648 38.5348 64.8671 36.8996Z" fill="#263238"/>
<path d="M118.831 83.5007C110.995 84.95 102.198 74.2844 96.9495 58.3046C95.6188 54.2168 94.547 50.0546 93.8077 45.8181C93.0685 41.6559 92.588 37.4565 92.3662 33.22C91.627 16.274 96.1363 3.1185 104.009 1.66917C113.73 -0.114628 124.966 16.7571 129.069 39.3518C133.172 61.9465 128.551 81.7169 118.831 83.5007Z" fill="#FFC94B"/>
<path d="M105.414 1.52027C114.802 1.52027 125.151 17.8346 129.032 39.3516C133.135 61.9463 128.551 81.7167 118.831 83.5005C118.35 83.5748 117.87 83.6119 117.389 83.6491C109.923 83.6491 101.865 73.3551 96.9126 58.3415C95.5819 54.2537 94.5101 50.0915 93.7708 45.8178C93.0316 41.6556 92.5511 37.4563 92.3293 33.2198C91.5901 16.2737 96.0994 3.11826 103.972 1.66892C104.453 1.55744 104.933 1.52027 105.414 1.52027ZM105.414 1C104.896 1 104.379 1.03716 103.898 1.14865C95.9146 2.59798 91.0727 15.4933 91.8488 33.2569C92.2554 41.8414 93.8078 50.3516 96.469 58.4902C101.607 74.0984 109.849 84.1694 117.426 84.1694C117.944 84.1694 118.461 84.1322 118.942 84.0207C123.857 83.1288 127.664 77.8889 129.66 69.3416C131.619 60.9429 131.582 50.2401 129.586 39.2401C127.701 28.7974 124.19 19.1724 119.755 12.0744C115.245 4.93921 110.145 1 105.414 1Z" fill="#263238" stroke="#263238" stroke-width="1.5"/>
<path d="M112.806 52.5444L96.9126 58.3046C95.5819 54.2167 94.5101 50.0545 93.7708 45.818C93.0316 41.6558 92.5511 37.4565 92.3293 33.22H110.219L112.806 52.5444Z" fill="#263238"/>
<path d="M112.797 52.5724C115.265 52.2314 116.674 47.6363 115.946 42.3089C115.217 36.9816 112.627 32.9394 110.159 33.2804C107.692 33.6215 106.283 38.2166 107.011 43.5439C107.739 48.8713 110.33 52.9135 112.797 52.5724Z" fill="white"/>
<path d="M73.0724 92.9396C72.9615 92.9396 72.8876 92.9025 72.8506 92.791C72.7767 92.6795 72.8137 92.4937 72.9615 92.4565C73.0724 92.3822 75.6597 91.0444 78.0622 90.6727C78.21 90.6356 78.3209 90.7471 78.3579 90.8957C78.3948 91.0444 78.2839 91.1558 78.1361 91.193C75.8075 91.5646 73.2202 92.9025 73.1833 92.9396C73.1833 92.9396 73.1094 92.9396 73.0724 92.9396Z" fill="#263238"/>
<path d="M69.8201 88.9268C69.7462 88.9268 69.7092 88.8896 69.6353 88.8525C69.5244 88.741 69.5244 88.5923 69.6353 88.4809C71.2246 86.9572 73.2575 86.0281 75.4752 85.8052C75.623 85.8052 75.7339 85.8795 75.7709 86.0281C75.7709 86.1768 75.697 86.2883 75.5491 86.3254C73.4793 86.5113 71.5573 87.4031 70.0419 88.8153C69.9679 88.8896 69.894 88.9268 69.8201 88.9268Z" fill="#263238"/>
<path d="M78.8017 95.8024C78.6908 95.8024 78.6169 95.7281 78.5799 95.6537C78.506 95.5049 78.5799 95.3562 78.7277 95.319L80.4649 94.5753C80.6128 94.5009 80.7606 94.5753 80.7976 94.7241C80.8715 94.8728 80.7976 95.0215 80.6497 95.0587L78.9126 95.8024C78.8756 95.8024 78.8386 95.8024 78.8017 95.8024Z" fill="#263238"/>
<path d="M57.9551 115.608C57.9551 115.608 61.3556 112.933 61.4295 112.635C61.5034 112.338 45.3882 96.99 45.3882 96.99L36.2588 102.787L57.9551 115.608Z" fill="#263238"/>
<path d="M57.9553 115.868C57.9184 115.868 57.8814 115.868 57.8075 115.831L36.1112 103.01C36.0003 102.936 35.9633 102.787 36.0372 102.638C36.0742 102.601 36.0742 102.564 36.1112 102.564L45.2406 96.7668C45.3515 96.6925 45.4624 96.7297 45.5733 96.804C61.7993 112.264 61.7254 112.487 61.6884 112.709C61.6515 112.784 61.5776 113.081 58.1401 115.794C58.0662 115.831 58.0293 115.868 57.9553 115.868ZM36.7395 102.787L57.9184 115.274C59.2859 114.196 60.6905 113.007 61.0971 112.635C60.0621 111.446 51.3393 103.01 45.3515 97.3243L36.7395 102.787Z" fill="#263238"/>
<path d="M1.41486 123.143L38.6572 99.4674L58.203 115.922L46.3003 129.421L1.41486 123.143Z" fill="#FCE69D" stroke="#263238"/>
<path d="M37.9594 66.5548C37.8486 66.5548 37.7377 66.4805 37.7007 66.4062C34.559 58.2676 34.2633 50.6122 36.8136 44.8148C36.8506 44.7034 36.8876 44.629 36.9245 44.5919C36.9245 44.4804 37.0354 44.3689 37.1463 44.3689C37.1463 44.3689 37.1463 44.3689 37.1832 44.3689C37.3311 44.3689 37.442 44.5175 37.442 44.6662C37.442 44.8148 37.3681 44.9263 37.2941 45.075C34.7808 50.7608 35.1134 58.2676 38.1812 66.2575C38.2182 66.4062 38.1812 66.5548 38.0334 66.592C38.0334 66.5548 37.9964 66.5548 37.9594 66.5548Z" fill="white"/>
<path d="M47.8649 42.8454C47.7171 42.8454 47.6062 42.7339 47.6062 42.5853C47.6062 42.4366 47.6801 42.3251 47.828 42.3251L59.2121 40.0954C59.3599 40.0582 59.4708 40.1326 59.5078 40.2812C59.5447 40.4299 59.4338 40.5414 59.323 40.5785L47.9389 42.8083L47.8649 42.8454Z" fill="white"/>
<path d="M47.8648 45.0747C47.7539 45.0747 47.643 45.0004 47.606 44.8517C47.5691 44.7031 47.68 44.5916 47.8278 44.5544L59.2119 42.2875C59.3598 42.2504 59.5076 42.3247 59.5446 42.4734C59.5815 42.622 59.5076 42.7707 59.3598 42.8078H59.3228L47.9387 45.0747H47.8648Z" fill="white"/>
<path d="M47.8648 47.6758C47.7539 47.6758 47.643 47.6015 47.606 47.4528C47.5691 47.3042 47.68 47.1927 47.8278 47.1555L59.2119 44.8886C59.3598 44.8515 59.5076 44.9258 59.5446 45.0744C59.5815 45.2231 59.5076 45.3717 59.3598 45.4089H59.3228L47.9387 47.6758H47.8648Z" fill="white"/>
<path d="M27.8293 84.0676C27.7268 84.0676 27.6498 83.982 27.6498 83.8963C27.2908 79.4997 24.0598 76.2737 21.1364 74.7606C17.3925 72.7907 10.1868 70.4496 5.90435 71.3347C5.82742 71.3632 5.75049 71.3061 5.69921 71.2205C5.67356 71.1348 5.69921 71.0206 5.75049 70.9635L6.80187 70.1356C11.1356 66.6526 16.0591 62.7414 16.7258 56.4034C17.7515 46.3256 10.315 37.1898 10.2381 37.1041C10.1868 37.047 10.1868 36.9329 10.2381 36.8472C10.2893 36.7616 10.3663 36.733 10.4432 36.7901C10.5458 36.8472 19.9569 41.2152 29.3679 35.4197C38.6251 29.7099 38.3174 18.4044 38.3174 18.2902C38.3174 18.2046 38.3431 18.1475 38.42 18.0904C38.4969 18.0618 38.5738 18.0618 38.6251 18.1189C38.7277 18.2046 48.1131 27.3118 54.9599 26.7122C63.7299 25.9414 67.1917 18.2617 67.2174 18.176C67.2686 18.0904 67.3712 18.0333 67.4481 18.0904C67.5251 18.1475 67.5764 18.2617 67.5251 18.3473C67.4994 18.433 63.935 26.3125 54.9599 27.1119C48.5747 27.6829 40.3432 20.2887 38.6508 18.6899C38.5995 20.8596 37.9328 30.5664 29.5218 35.7338C21.3929 40.7299 13.2383 38.2747 10.9304 37.3896C12.546 39.5879 17.9567 47.6674 17.0592 56.432C16.3924 62.9412 11.4177 66.9095 7.00701 70.4211L6.57108 70.7922C10.9817 70.2498 17.7002 72.4766 21.2903 74.3609C24.2906 75.9311 27.6242 79.2428 28.0088 83.8392C28.0088 83.9249 27.9319 84.0391 27.8293 84.0676Z" fill="#263238" stroke="#263238"/>
<path fill-rule="evenodd" clip-rule="evenodd" d="M137.476 66.8139C133.843 69.3523 130.106 69.2939 126.265 66.7522C125.383 66.1686 124.193 66.4105 123.61 67.2927C123.026 68.1748 123.268 69.3647 124.15 69.9484C129.482 73.477 134.67 73.4729 139.714 69.9263L139.758 69.8941L139.798 69.8637C139.807 69.8568 139.817 69.8495 139.826 69.8421C141.636 68.402 143.442 67.6459 145.278 67.6505C147.137 67.6556 148.99 68.4333 150.874 69.8729C156.153 73.9365 161.363 73.5354 166.526 69.9383C170.281 67.4725 174.036 67.3883 177.792 69.936C178.667 70.5302 179.86 70.3016 180.453 69.4263C181.047 68.5511 180.819 67.3584 179.944 66.7642C174.762 63.2489 169.58 63.3367 164.398 66.7499L164.355 66.7794C160.678 69.3486 156.967 69.729 153.207 66.8323L153.201 66.8277C150.552 64.803 147.902 63.8247 145.289 63.8178C142.672 63.8109 140.056 64.7722 137.476 66.8139ZM137.476 55.3112C133.843 57.8496 130.106 57.7912 126.265 55.2496C125.383 54.6659 124.193 54.9078 123.61 55.79C123.026 56.6722 123.268 57.862 124.15 58.4457C129.482 61.9744 134.67 61.9702 139.714 58.4236L139.758 58.3919L139.798 58.3615C139.807 58.3542 139.817 58.3468 139.826 58.3395C141.636 56.8994 143.442 56.1432 145.278 56.1483C147.137 56.1529 148.99 56.9307 150.874 58.3703C156.153 62.4338 161.363 62.0328 166.526 58.4356C170.281 55.9698 174.036 55.8857 177.792 58.4337C178.667 59.0275 179.86 58.7989 180.453 57.9237C181.047 57.0484 180.819 55.8558 179.944 55.262C174.762 51.7462 169.58 51.834 164.398 55.2473L164.355 55.2767C160.678 57.8459 156.967 58.2263 153.207 55.3296L153.201 55.325C150.552 53.3003 147.902 52.322 145.289 52.3151C142.672 52.3082 140.056 53.2695 137.476 55.3112ZM137.476 43.1563C133.843 45.6947 130.106 45.6363 126.265 43.0947C125.383 42.511 124.193 42.753 123.61 43.6351C123.026 44.5173 123.268 45.7072 124.15 46.2908C129.482 49.8195 134.67 49.8154 139.714 46.2688L139.758 46.237L139.798 46.2067L139.826 46.1846C141.636 44.7445 143.442 43.9884 145.278 43.9934C147.137 43.998 148.99 44.7758 150.874 46.2154C156.153 50.279 161.363 49.8779 166.526 46.2807C170.281 43.815 174.036 43.7308 177.792 46.2789C178.667 46.8727 179.86 46.6441 180.453 45.7688C181.047 44.8935 180.819 43.7009 179.944 43.1071C174.762 39.5913 169.58 39.6792 164.398 43.0924L164.355 43.1218C160.678 45.6911 156.967 46.0714 153.207 43.1747L153.201 43.1701C150.552 41.1455 147.902 40.1672 145.289 40.1603C142.672 40.1534 140.056 41.1147 137.476 43.1563ZM137.476 31.6537C133.843 34.1921 130.106 34.1337 126.265 31.592C125.383 31.0084 124.193 31.2508 123.61 32.1325C123.026 33.0146 123.268 34.2045 124.15 34.7882C129.482 38.3168 134.67 38.3127 139.714 34.7661L139.758 34.7343L139.798 34.704C139.807 34.6966 139.817 34.6893 139.826 34.6824C141.636 33.2423 143.442 32.4857 145.278 32.4908C147.137 32.4954 148.99 33.2731 150.874 34.7132C156.153 38.7763 161.363 38.3752 166.526 34.778C170.281 32.3123 174.036 32.2281 177.792 34.7762C178.667 35.37 179.86 35.1414 180.453 34.2661C181.047 33.3909 180.819 32.1982 179.944 31.6044C174.762 28.0887 169.58 28.1765 164.398 31.5897L164.355 31.6192C160.678 34.1884 156.967 34.5688 153.207 31.6721L153.201 31.6675C150.552 29.6428 147.902 28.665 145.289 28.6576C142.672 28.6507 140.056 29.612 137.476 31.6537ZM137.476 18.239C133.843 20.7774 130.106 20.7186 126.265 18.1769C125.383 17.5933 124.193 17.8356 123.61 18.7178C123.026 19.5995 123.268 20.7898 124.15 21.3735C129.482 24.9017 134.67 24.8976 139.714 21.351L139.758 21.3192L139.798 21.2889C139.807 21.282 139.817 21.2746 139.826 21.2673C141.636 19.8272 143.442 19.0706 145.278 19.0756C147.137 19.0807 148.99 19.858 150.874 21.2981C156.153 25.3617 161.363 24.9601 166.526 21.3629C170.281 18.8976 174.036 18.8135 177.792 21.3611C178.667 21.9549 179.86 21.7263 180.453 20.851C181.047 19.9758 180.819 18.7831 179.944 18.1893C174.762 14.6735 169.58 14.7614 164.398 18.1751L164.355 18.2045C160.678 20.7738 156.967 21.1537 153.207 18.257L153.201 18.2524C150.552 16.2282 147.902 15.2499 145.289 15.243C142.672 15.2361 140.056 16.1973 137.476 18.239Z" fill="#263238" stroke="white" stroke-width="2"/>
</svg>
