<svg width="102" height="48" viewBox="0 0 102 48" fill="none" xmlns="http://www.w3.org/2000/svg">
<g clip-path="url(#clip0_445_19894)">
<path d="M20.1471 48.0001C20.0086 47.9984 19.8721 47.968 19.7459 47.9109C18.9436 47.5541 1.21945e-05 38.9464 1.21945e-05 27.8747V1.01473C-0.000684375 0.872602 0.0284683 0.731917 0.0855813 0.601785C0.142694 0.471654 0.226494 0.35498 0.331549 0.259323C0.436605 0.163666 0.560574 0.0911599 0.695424 0.0465031C0.830273 0.00184634 0.972995 -0.0139652 1.11434 9.29772e-05C1.36541 0.0104988 1.60367 0.113806 1.78294 0.289988C4.14362 2.56362 7.29281 3.83376 10.5694 3.83376C13.846 3.83376 16.9952 2.56362 19.3559 0.289988C19.5779 0.0999705 19.8605 -0.00444765 20.1527 -0.00444765C20.4448 -0.00444765 20.7274 0.0999705 20.9494 0.289988C23.3101 2.56362 26.4593 3.83376 29.7359 3.83376C33.0125 3.83376 36.1617 2.56362 38.5224 0.289988C38.7066 0.107687 38.9542 0.00379875 39.2132 9.29772e-05C39.3533 -0.0121637 39.4944 0.00454214 39.6278 0.0491717C39.7611 0.0938013 39.8839 0.1654 39.9884 0.259518C40.0929 0.353635 40.1769 0.468258 40.2353 0.596261C40.2936 0.724263 40.3251 0.862909 40.3276 1.00358V27.8747C40.3276 39.0245 21.384 47.5876 20.5817 47.9443C20.4419 47.9915 20.2942 48.0105 20.1471 48.0001ZM2.0058 3.09974V27.8747C1.66036 34.7987 13.1491 42.7485 20.1471 45.9262C25.1838 43.5736 38.5112 35.7353 38.2995 27.8747V3.09974C35.6191 5.01601 32.3738 5.97727 29.0828 5.82971C25.7918 5.68214 22.6454 4.43429 20.1471 2.28581C17.6505 4.43338 14.506 5.68079 11.217 5.82836C7.92791 5.97593 4.68447 5.01512 2.0058 3.09974Z" fill="#263238"/>
<path d="M24.3035 16.9812C24.2484 18.0455 23.787 19.048 23.0146 19.7819C22.2422 20.5157 21.2178 20.9248 20.1526 20.9248C19.0875 20.9248 18.0631 20.5157 17.2907 19.7819C16.5183 19.048 16.0569 18.0455 16.0018 16.9812C16.0569 15.9169 16.5183 14.9144 17.2907 14.1806C18.0631 13.4467 19.0875 13.0376 20.1526 13.0376C21.2178 13.0376 22.2422 13.4467 23.0146 14.1806C23.787 14.9144 24.2484 15.9169 24.3035 16.9812Z" fill="#1973BE"/>
<path d="M22.8215 23.9946C22.0856 24.6475 21.1361 25.008 20.1526 25.008C19.1691 25.008 18.2197 24.6475 17.4838 23.9946C15.9772 24.4306 14.6864 25.4116 13.8626 26.747C13.0387 28.0824 12.7407 29.6767 13.0265 31.2197C13.2374 32.3386 13.8333 33.3482 14.7106 34.0733C15.5879 34.7984 16.6914 35.1931 17.8293 35.1891H22.5652C23.6908 35.1793 24.778 34.7778 25.6401 34.0536C26.5022 33.3293 27.0855 32.3274 27.2899 31.2197C27.5804 29.6747 27.2831 28.0768 26.4563 26.7399C25.6295 25.4031 24.333 24.4239 22.8215 23.9946Z" fill="#1973BE"/>
<path d="M20.1471 22.1324C13.3385 21.9094 13.3497 12.0976 20.1471 11.8188C26.9556 12.0418 26.9556 21.9206 20.1471 22.1324ZM20.1471 13.8258C19.3446 13.8736 18.5906 14.2263 18.0393 14.8117C17.488 15.3972 17.1809 16.1712 17.1809 16.9756C17.1809 17.7801 17.488 18.5541 18.0393 19.1395C18.5906 19.725 19.3446 20.0777 20.1471 20.1255C20.9496 20.0777 21.7036 19.725 22.2549 19.1395C22.8062 18.5541 23.1133 17.7801 23.1133 16.9756C23.1133 16.1712 22.8062 15.3972 22.2549 14.8117C21.7036 14.2263 20.9496 13.8736 20.1471 13.8258Z" fill="#1973BE"/>
<path d="M22.5206 36.1923H17.8293C16.4607 36.1919 15.1353 35.7122 14.0831 34.8365C13.0308 33.9609 12.318 32.7443 12.0682 31.3979C11.7295 29.6067 12.0736 27.7535 13.0328 26.2036C13.9919 24.6537 15.4964 23.5194 17.2498 23.0244C17.4137 22.9791 17.5864 22.9758 17.7519 23.0148C17.9174 23.0537 18.0705 23.1337 18.197 23.2474C18.7461 23.7371 19.4561 24.0078 20.1917 24.0078C20.9273 24.0078 21.6372 23.7371 22.1863 23.2474C22.3129 23.1337 22.4659 23.0537 22.6314 23.0148C22.7969 22.9758 22.9696 22.9791 23.1335 23.0244C30.0869 24.8418 30.3989 35.8467 22.5206 36.1923ZM17.2833 25.1094C12.9485 26.5589 12.5139 34.0292 17.7847 34.1853H22.5206C27.7914 33.9735 27.3568 26.5477 23.0221 25.1094C22.1804 25.697 21.1789 26.012 20.1527 26.012C19.1264 26.012 18.1249 25.697 17.2833 25.1094Z" fill="#1973BE"/>
</g>
<path d="M94.4167 19.0209H83.5834C83.4891 19.0209 83.4046 19.0209 83.3125 19.0263V17.6667C83.3125 14.2532 84.2799 11.9792 89 11.9792C94.0408 11.9792 94.6875 14.4395 94.6875 16.5834C94.6875 16.7989 94.7186 19.3316 94.871 19.484C95.0233 19.6364 95.0748 19.484 95.2903 19.484C95.5058 19.484 95.9766 19.6364 96.129 19.484C96.2814 19.3316 96.3125 16.7989 96.3125 16.5834C96.3125 12.4505 93.8523 10.3542 89 10.3542C82.4459 10.3542 81.6875 14.5251 81.6875 17.6667V19.1271C78.4191 19.5279 77.3542 21.1854 77.3542 25.2501V27.4167C77.3542 32.1899 78.8091 33.6459 83.5834 33.6459H94.4167C99.1909 33.6459 100.646 32.1899 100.646 27.4167V25.2501C100.646 20.4769 99.1909 19.0209 94.4167 19.0209ZM99.0209 27.4167C99.0209 31.2897 98.2896 32.0209 94.4167 32.0209H83.5834C79.7104 32.0209 78.9792 31.2897 78.9792 27.4167V25.2501C78.9792 21.3772 79.7104 20.6459 83.5834 20.6459H94.4167C98.2896 20.6459 99.0209 21.3772 99.0209 25.2501V27.4167Z" fill="#263238"/>
<circle cx="89" cy="26.5" r="3" fill="#1973BE"/>
<line x1="40" y1="26.25" x2="78" y2="26.25" stroke="#004178" stroke-width="1.5" stroke-dasharray="3 3"/>
<defs>
<clipPath id="clip0_445_19894">
<rect width="47.3924" height="48" fill="white"/>
</clipPath>
</defs>
</svg>
