<svg width="17" height="16" viewBox="0 0 17 16" fill="none" xmlns="http://www.w3.org/2000/svg">
<path d="M8.49975 11.5666C9.0999 11.5666 9.58642 11.0801 9.58642 10.48C9.58642 9.87983 9.0999 9.39331 8.49975 9.39331C7.8996 9.39331 7.41309 9.87983 7.41309 10.48C7.41309 11.0801 7.8996 11.5666 8.49975 11.5666Z" fill="#1973BE"/>
<path d="M12.6863 6.35325V5.51992C12.6863 3.71992 12.253 1.33325 8.49967 1.33325C4.74634 1.33325 4.31301 3.71992 4.31301 5.51992V6.35325C2.44634 6.58658 1.83301 7.53325 1.83301 9.85992V11.0999C1.83301 13.8333 2.66634 14.6666 5.39967 14.6666H11.5997C14.333 14.6666 15.1663 13.8333 15.1663 11.0999V9.85992C15.1663 7.53325 14.553 6.58658 12.6863 6.35325ZM8.49967 12.4933C7.38634 12.4933 6.48634 11.5866 6.48634 10.4799C6.48634 9.36658 7.39301 8.46658 8.49967 8.46658C9.60634 8.46658 10.513 9.37325 10.513 10.4799C10.513 11.5933 9.61301 12.4933 8.49967 12.4933ZM5.39967 6.29325C5.34634 6.29325 5.29967 6.29325 5.24634 6.29325V5.51992C5.24634 3.56658 5.79967 2.26659 8.49967 2.26659C11.1997 2.26659 11.753 3.56658 11.753 5.51992V6.29992C11.6997 6.29992 11.653 6.29992 11.5997 6.29992H5.39967V6.29325Z" fill="#1973BE"/>
</svg>
