<svg width="16" height="16" viewBox="0 0 16 16" fill="none" xmlns="http://www.w3.org/2000/svg">
<path d="M7.99975 11.5669C8.5999 11.5669 9.08642 11.0804 9.08642 10.4802C9.08642 9.88007 8.5999 9.39355 7.99975 9.39355C7.3996 9.39355 6.91309 9.88007 6.91309 10.4802C6.91309 11.0804 7.3996 11.5669 7.99975 11.5669Z" fill="white"/>
<path d="M12.1863 6.35301V5.51967C12.1863 3.71967 11.753 1.33301 7.99967 1.33301C4.24634 1.33301 3.81301 3.71967 3.81301 5.51967V6.35301C1.94634 6.58634 1.33301 7.53301 1.33301 9.85967V11.0997C1.33301 13.833 2.16634 14.6663 4.89967 14.6663H11.0997C13.833 14.6663 14.6663 13.833 14.6663 11.0997V9.85967C14.6663 7.53301 14.053 6.58634 12.1863 6.35301ZM7.99967 12.493C6.88634 12.493 5.98634 11.5863 5.98634 10.4797C5.98634 9.36634 6.89301 8.46634 7.99967 8.46634C9.10634 8.46634 10.013 9.37301 10.013 10.4797C10.013 11.593 9.11301 12.493 7.99967 12.493ZM4.89967 6.29301C4.84634 6.29301 4.79967 6.29301 4.74634 6.29301V5.51967C4.74634 3.56634 5.29967 2.26634 7.99967 2.26634C10.6997 2.26634 11.253 3.56634 11.253 5.51967V6.29967C11.1997 6.29967 11.153 6.29967 11.0997 6.29967H4.89967V6.29301Z" fill="white"/>
</svg>
