<svg width="23" height="23" viewBox="0 0 23 23" fill="none" xmlns="http://www.w3.org/2000/svg">
<path d="M11.5 22V13.519C11.5 12.9835 11.7128 12.4699 12.0914 12.0912C12.4701 11.7125 12.9837 11.4998 13.5192 11.4998C14.0548 11.4998 14.5684 11.7125 14.9471 12.0912C15.3257 12.4699 15.5385 12.9835 15.5385 13.519V17.9615H18.7692C19.6261 17.9615 20.4478 18.3018 21.0537 18.9077C21.6596 19.5136 22 20.3354 22 21.1923V22M10.2998 5.19156C8.28617 2.97668 5.58457 1.50547 2.63156 1.0157C2.42874 0.987033 2.22213 1.00224 2.02569 1.06028C1.82924 1.11833 1.64755 1.21787 1.49288 1.35217C1.33821 1.48648 1.21418 1.65241 1.12915 1.83878C1.04412 2.02514 1.00009 2.22758 1.00003 2.43242V13.9504C0.997857 14.3041 1.12673 14.646 1.36178 14.9103C1.59684 15.1746 1.92143 15.3425 2.27295 15.3816C4.56646 15.6924 6.73855 16.5986 8.57294 18.0099M10.2998 5.19156L10.3014 9.65496M10.2998 5.19156C12.3137 2.97587 15.0159 1.50407 17.9696 1.01409C18.1724 0.985418 18.3791 1.00062 18.5755 1.05867C18.7719 1.11671 18.9536 1.21625 19.1083 1.35056C19.263 1.48486 19.387 1.6508 19.472 1.83716C19.5571 2.02352 19.6011 2.22597 19.6012 2.43081V13.9488C19.6033 14.3027 19.4742 14.6449 19.2388 14.9092C19.0034 15.1735 18.6784 15.3413 18.3266 15.38" stroke="#292D32" stroke-width="1.5" stroke-linecap="round" stroke-linejoin="round"/>
</svg>
