<svg width="25" height="24" viewBox="0 0 25 24" fill="none" xmlns="http://www.w3.org/2000/svg">
<g clip-path="url(#clip0_293_2711)">
<rect width="24" height="24" transform="translate(0.5)" fill="#004178"/>
<path d="M21.6258 11.1429L21.5496 11.2477L21.6703 11.2949C23.3135 11.9372 24.4 13.5121 24.4 15.2961V22.4937H0.6V14.593C0.6 12.9332 1.54048 11.4544 2.99471 10.7391L3.08666 10.6939L3.03921 10.6031C2.72894 10.0093 2.55314 9.33461 2.55314 8.61938V5.80467C2.55314 3.43463 4.48153 1.50625 6.85156 1.50625C9.2216 1.50625 11.15 3.43463 11.15 5.80467V8.61938C11.15 9.33494 10.9741 10.0099 10.6635 10.6039L10.6162 10.6945L10.7077 10.7398C11.5387 11.1514 12.2146 11.8228 12.6339 12.6426L12.7054 12.7825L12.8018 12.6585C13.2736 12.0518 13.9028 11.5784 14.6265 11.2945L14.747 11.2473L14.6709 11.1426C14.1548 10.4334 13.85 9.56148 13.85 8.61938V6.5078C13.85 4.13776 15.7784 2.20938 18.1484 2.20938C20.5185 2.20938 22.4469 4.13776 22.4469 6.50784V8.61942C22.4469 9.56162 22.1419 10.4337 21.6258 11.1429ZM15.1622 7.22248L15.0563 7.21614V7.3223V8.61942C15.0563 10.3246 16.4434 11.7116 18.1484 11.7116C19.8535 11.7116 21.2406 10.3246 21.2406 8.61942V7.32206V7.21589L21.1346 7.22224C21.0378 7.22805 20.9357 7.23172 20.8279 7.23172C20.0949 7.23172 19.1259 7.07433 18.2053 6.4376L18.1484 6.39825L18.0915 6.4376C17.0356 7.16806 15.9158 7.26756 15.1622 7.22248ZM21.0891 6.01952L21.2026 6.01173L21.1803 5.90013C20.8971 4.48518 19.6457 3.41563 18.1484 3.41563C16.6511 3.41563 15.3996 4.48528 15.1165 5.90037L15.0942 6.01198L15.2077 6.01975C15.8299 6.06234 16.8556 5.9779 17.7446 5.17658L17.6777 5.1023L17.7446 5.17657L18.1484 4.81257L18.5522 5.17657L18.6192 5.1023L18.5522 5.17658C19.4407 5.97743 20.4657 6.06225 21.0891 6.01952ZM11.1482 19.385L11.0993 19.3624L11.0535 19.391C10.4145 19.7893 9.96755 20.4353 9.81617 21.1672L9.79129 21.2875H9.91409H15.0858H15.2086L15.1837 21.1673C15.0325 20.4353 14.5855 19.7893 13.9465 19.391L13.9007 19.3624L13.8518 19.385C13.4399 19.5746 12.9824 19.6812 12.5 19.6812C12.0176 19.6812 11.5601 19.5746 11.1482 19.385ZM9.70478 4.61337L9.65327 4.49043L9.54964 4.57428C8.79352 5.18614 7.8494 5.525 6.85156 5.525C5.85373 5.525 4.9096 5.18614 4.15348 4.57428L4.04986 4.49043L3.99835 4.61337C3.8446 4.98026 3.75939 5.38277 3.75939 5.80467V7.90481V8.01293L3.86718 8.00451C4.33343 7.96807 4.78678 7.84559 5.1929 7.64384C5.76847 7.35789 6.32629 7.21511 6.85156 7.21511C7.37684 7.21511 7.93466 7.35789 8.51023 7.64384C8.91635 7.8456 9.36969 7.96803 9.83593 8.00451L9.94373 8.01294V7.90481V5.80467C9.94373 5.38277 9.85852 4.98031 9.70478 4.61337ZM3.93317 9.20894L3.81608 9.21746L3.84313 9.33171C4.16572 10.6943 5.3914 11.7116 6.85156 11.7116C8.31172 11.7116 9.53741 10.6943 9.86 9.33171L9.88705 9.21746L9.76994 9.20894C9.13942 9.16306 8.52457 8.99792 7.97357 8.72416L7.97357 8.72416C7.57928 8.52829 7.19133 8.42141 6.85156 8.42141C6.5118 8.42141 6.12385 8.52829 5.72961 8.72416C5.17856 8.99787 4.5637 9.16302 3.93317 9.20894ZM8.8413 3.59304L8.93194 3.51656L8.84126 3.44014C8.30322 2.98671 7.60889 2.7125 6.85156 2.7125C6.09423 2.7125 5.39991 2.98671 4.86187 3.44014L4.77119 3.51656L4.86182 3.59304C5.41409 4.05902 6.11246 4.31875 6.85156 4.31875C7.59066 4.31875 8.28903 4.05902 8.8413 3.59304ZM3.8883 11.7303L3.84244 11.6866L3.78333 11.7094C2.59385 12.1681 1.80625 13.3051 1.80625 14.593V21.1875V21.2875H1.90625H8.489H8.57655L8.58812 21.2008C8.72111 20.2033 9.23264 19.2946 10.0033 18.6627L10.0816 18.5985L10.0165 18.521C9.5424 17.9569 9.25627 17.2301 9.25627 16.4375C9.25627 14.9944 10.204 13.7684 11.5101 13.3488L11.6213 13.313L11.5688 13.2087C11.2271 12.5288 10.6408 11.9885 9.92007 11.7094L9.8609 11.6864L9.81496 11.7302C9.04309 12.4658 7.99914 12.9178 6.85156 12.9178C5.70403 12.9178 4.66017 12.4659 3.8883 11.7303ZM23.0938 21.2875H23.1938V21.1875V15.2961C23.1938 13.9482 22.3314 12.7651 21.0483 12.3524L20.586 12.2037L20.5405 12.1891L20.5005 12.2153C19.8242 12.6593 19.0161 12.9178 18.1484 12.9178C17.2807 12.9178 16.4727 12.6592 15.7964 12.2153L15.7564 12.1891L15.7109 12.2037L15.2486 12.3524L15.2792 12.4476L15.2485 12.3524C14.6791 12.5356 14.1812 12.8787 13.8081 13.3319L13.7255 13.4323L13.8438 13.4864C14.9637 13.9984 15.7437 15.1285 15.7437 16.4375C15.7437 17.2301 15.4576 17.9568 14.9835 18.521L14.9184 18.5985L14.9967 18.6627C15.7674 19.2946 16.2788 20.2033 16.4119 21.2007L16.4235 21.2875H16.511H23.0938ZM10.4625 16.4375C10.4625 17.5611 11.3764 18.475 12.5 18.475C13.6236 18.475 14.5375 17.5611 14.5375 16.4375C14.5375 15.314 13.6236 14.4 12.5 14.4C11.3764 14.4 10.4625 15.314 10.4625 16.4375Z" fill="white" stroke="#004178" stroke-width="0.2"/>
</g>
<defs>
<clipPath id="clip0_293_2711">
<rect width="24" height="24" fill="white" transform="translate(0.5)"/>
</clipPath>
</defs>
</svg>
