<svg width="25" height="24" viewBox="0 0 25 24" fill="none" xmlns="http://www.w3.org/2000/svg">
<g clip-path="url(#clip0_31_1101)">
<path d="M21.7067 11.2018C22.2348 10.4761 22.5469 9.58355 22.5469 8.61942V6.50784C22.5469 4.08253 20.5737 2.10938 18.1484 2.10938C15.7232 2.10938 13.75 4.08253 13.75 6.5078V8.61938C13.75 9.58341 14.062 10.4758 14.59 11.2014C13.8494 11.4919 13.2057 11.9764 12.7229 12.5971C12.2939 11.7583 11.6024 11.0714 10.7521 10.6502C11.0699 10.0423 11.25 9.35152 11.25 8.61938V5.80467C11.25 3.37941 9.27683 1.40625 6.85156 1.40625C4.4263 1.40625 2.45314 3.37941 2.45314 5.80467V8.61938C2.45314 9.35119 2.63305 10.0417 2.95058 10.6494C1.46244 11.3813 0.5 12.8947 0.5 14.593V22.5938H24.5V15.2961C24.5 13.4708 23.3881 11.859 21.7067 11.2018ZM15.1563 8.61942V7.3223C15.9233 7.36819 17.068 7.26727 18.1484 6.51984C19.0903 7.17136 20.0811 7.33172 20.8279 7.33172C20.938 7.33172 21.0421 7.32797 21.1406 7.32206V8.61942C21.1406 10.2693 19.7983 11.6116 18.1484 11.6116C16.4986 11.6116 15.1563 10.2693 15.1563 8.61942ZM18.1484 3.51562C19.5971 3.51562 20.8082 4.55053 21.0823 5.91975C20.4737 5.96147 19.48 5.87817 18.6192 5.1023L18.1484 4.67794L17.6777 5.1023C16.8164 5.87864 15.822 5.96156 15.2146 5.91998C15.4885 4.55063 16.6998 3.51562 18.1484 3.51562ZM11.1064 19.4758C11.531 19.6713 12.0028 19.7812 12.5 19.7812C12.9972 19.7812 13.469 19.6713 13.8936 19.4758C14.5093 19.8596 14.94 20.4822 15.0858 21.1875H9.91409C10.06 20.4822 10.4908 19.8596 11.1064 19.4758ZM12.5 18.375C11.4317 18.375 10.5625 17.5058 10.5625 16.4375C10.5625 15.3692 11.4317 14.5 12.5 14.5C13.5683 14.5 14.4375 15.3692 14.4375 16.4375C14.4375 17.5058 13.5683 18.375 12.5 18.375ZM6.85156 5.625C7.87231 5.625 8.83864 5.27827 9.61255 4.65202C9.76128 5.007 9.84373 5.39634 9.84373 5.80467V7.90481C9.38966 7.86928 8.94884 7.75008 8.55472 7.55428C7.96812 7.26286 7.39512 7.11511 6.85156 7.11511C6.308 7.11511 5.735 7.26286 5.14841 7.55428C4.75428 7.75008 4.31347 7.86933 3.85939 7.90481V5.80467C3.85939 5.39634 3.94184 5.00695 4.09058 4.65202C4.86448 5.27827 5.83081 5.625 6.85156 5.625ZM3.94044 9.30867C4.58342 9.26184 5.21098 9.09342 5.77409 8.81372C6.15903 8.62247 6.53159 8.52141 6.85156 8.52141C7.17153 8.52141 7.54409 8.62247 7.92908 8.81372C8.49214 9.09347 9.1197 9.26189 9.76269 9.30867C9.4505 10.6273 8.26419 11.6116 6.85156 11.6116C5.43894 11.6116 4.25263 10.6273 3.94044 9.30867ZM8.77681 3.51661C8.24248 3.96745 7.56692 4.21875 6.85156 4.21875C6.1362 4.21875 5.46064 3.96745 4.92631 3.51661C5.44709 3.07772 6.11881 2.8125 6.85156 2.8125C7.58431 2.8125 8.25603 3.07772 8.77681 3.51661ZM1.90625 14.593C1.90625 13.3466 2.66825 12.2466 3.81931 11.8027C4.60897 12.5552 5.67725 13.0178 6.85156 13.0178C8.02592 13.0178 9.0943 12.5552 9.88395 11.8026C10.5812 12.0727 11.1487 12.5955 11.4795 13.2536C10.1334 13.686 9.15627 14.9496 9.15627 16.4375C9.15627 17.2546 9.45134 18.0039 9.93992 18.5854C9.1498 19.2332 8.62536 20.1648 8.489 21.1875H1.90625V14.593ZM23.0938 21.1875H16.511C16.3746 20.1647 15.8502 19.2332 15.0601 18.5853C15.5487 18.0039 15.8437 17.2546 15.8437 16.4375C15.8437 15.0877 15.0394 13.9231 13.8853 13.3954C14.2464 12.9569 14.7282 12.6248 15.2792 12.4476L15.7415 12.2989C16.4335 12.7531 17.2606 13.0178 18.1484 13.0178C19.0362 13.0178 19.8633 12.7532 20.5554 12.2989L21.0177 12.4476C22.2595 12.847 23.0938 13.9917 23.0938 15.2961V21.1875Z" fill="#263238" stroke="white" stroke-width="0.2"/>
</g>
<defs>
<clipPath id="clip0_31_1101">
<rect width="24" height="24" fill="white" transform="translate(0.5)"/>
</clipPath>
</defs>
</svg>
