<svg width="25" height="25" viewBox="0 0 25 25" fill="none" xmlns="http://www.w3.org/2000/svg">
<path d="M12.87 2.65009L21.87 6.25006C22.22 6.39006 22.5 6.81006 22.5 7.18006V10.5001C22.5 11.0501 22.05 11.5001 21.5 11.5001H3.5C2.95 11.5001 2.5 11.0501 2.5 10.5001V7.18006C2.5 6.81006 2.78 6.39006 3.13 6.25006L12.13 2.65009C12.33 2.57009 12.67 2.57009 12.87 2.65009Z" stroke="#263238" stroke-width="1.5" stroke-miterlimit="10" stroke-linecap="round" stroke-linejoin="round"/>
<path d="M22.5 22.5H2.5V19.5C2.5 18.95 2.95 18.5 3.5 18.5H21.5C22.05 18.5 22.5 18.95 22.5 19.5V22.5Z" stroke="#263238" stroke-width="1.5" stroke-miterlimit="10" stroke-linecap="round" stroke-linejoin="round"/>
<path d="M4.5 18.5V11.5" stroke="#263238" stroke-width="1.5" stroke-miterlimit="10" stroke-linecap="round" stroke-linejoin="round"/>
<path d="M8.5 18.5V11.5" stroke="#263238" stroke-width="1.5" stroke-miterlimit="10" stroke-linecap="round" stroke-linejoin="round"/>
<path d="M12.5 18.5V11.5" stroke="#263238" stroke-width="1.5" stroke-miterlimit="10" stroke-linecap="round" stroke-linejoin="round"/>
<path d="M16.5 18.5V11.5" stroke="#263238" stroke-width="1.5" stroke-miterlimit="10" stroke-linecap="round" stroke-linejoin="round"/>
<path d="M20.5 18.5V11.5" stroke="#263238" stroke-width="1.5" stroke-miterlimit="10" stroke-linecap="round" stroke-linejoin="round"/>
<path d="M1.5 22.5H23.5" stroke="#263238" stroke-width="1.5" stroke-miterlimit="10" stroke-linecap="round" stroke-linejoin="round"/>
<path d="M12.5 9C13.3284 9 14 8.32843 14 7.5C14 6.67157 13.3284 6 12.5 6C11.6716 6 11 6.67157 11 7.5C11 8.32843 11.6716 9 12.5 9Z" stroke="#263238" stroke-width="1.5" stroke-miterlimit="10" stroke-linecap="round" stroke-linejoin="round"/>
</svg>
