<svg width="25" height="25" viewBox="0 0 25 25" fill="none" xmlns="http://www.w3.org/2000/svg">
<path d="M10.55 3.03004L4.53002 6.96004C2.60002 8.22004 2.60002 11.04 4.53002 12.3L10.55 16.23C11.63 16.94 13.41 16.94 14.49 16.23L20.48 12.3C22.4 11.04 22.4 8.23004 20.48 6.97004L14.49 3.04004C13.41 2.32004 11.63 2.32004 10.55 3.03004Z" stroke="#263238" stroke-width="1.5" stroke-linecap="round" stroke-linejoin="round"/>
<path d="M6.13 13.58L6.12 18.27C6.12 19.54 7.1 20.9 8.3 21.3L11.49 22.36C12.04 22.54 12.95 22.54 13.51 22.36L16.7 21.3C17.9 20.9 18.88 19.54 18.88 18.27V13.63" stroke="#263238" stroke-width="1.5" stroke-linecap="round" stroke-linejoin="round"/>
<path d="M21.9 15.5V9.5" stroke="#263238" stroke-width="1.5" stroke-linecap="round" stroke-linejoin="round"/>
</svg>
