<svg width="20" height="18" viewBox="0 0 20 18" fill="none" xmlns="http://www.w3.org/2000/svg">
<path d="M4.6 10.782V8.5M4.6 10.782C4.59709 11.2566 4.40584 11.7106 4.06831 12.0442C3.73077 12.3778 3.27457 12.5637 2.8 12.561C2.32543 12.5637 1.86923 12.3778 1.53169 12.0442C1.19416 11.7106 1.00291 11.2566 1 10.782V10C1 6.25 1 4.375 1.955 3.061C2.26306 2.63667 2.63595 2.26344 3.06 1.955C4.375 1 6.251 1 10 1C13.749 1 15.625 1 16.939 1.955C17.3634 2.26336 17.7366 2.6366 18.045 3.061C19 4.375 19 6.261 19 10.03C19 11.556 19 12.32 18.843 12.948C18.6029 13.8969 18.1081 14.7622 17.4119 15.4503C16.7157 16.1384 15.8447 16.6231 14.893 16.852C14.485 16.952 13.783 16.987 12.925 17C12.079 17 11.35 17.076 11.35 16C11.35 14.984 11.677 13.895 12.925 13.895H13.6M4.6 10.782V12.116C4.60291 12.5906 4.79416 13.0446 5.13169 13.3782C5.46923 13.7118 5.92543 13.8977 6.4 13.895C7.394 13.895 8.2 13.098 8.2 12.116M13.6 13.895C14.0746 13.8977 14.5308 13.7118 14.8683 13.3782C15.2058 13.0446 15.3971 12.5906 15.4 12.116V8.5M13.6 13.895C13.1254 13.8977 12.6692 13.7118 12.3317 13.3782C11.9942 13.0446 11.8029 12.5906 11.8 12.116M8.2 12.116V8.114M8.2 12.116V12.912C8.20291 13.3866 8.39415 13.8406 8.73169 14.1742C9.06923 14.5078 9.52543 14.6937 10 14.691C10.994 14.691 11.8 13.895 11.8 12.912V12.116M11.8 12.116V8.114" stroke="#292D32" stroke-width="1.5" stroke-linecap="round" stroke-linejoin="round"/>
</svg>
