<svg width="25" height="24" viewBox="0 0 25 24" fill="none" xmlns="http://www.w3.org/2000/svg">
<g clip-path="url(#clip0_31_1696)">
<path d="M24.0014 11.4077H23.4283C23.1434 5.82149 18.6784 1.35663 13.0923 1.07172V0.498598C13.0923 0.197388 12.8481 -0.046875 12.5469 -0.046875C12.2457 -0.046875 12.0014 0.197388 12.0014 0.498598V1.07172C6.41521 1.35627 1.94999 5.8213 1.66544 11.4077H1.09232C0.790925 11.4077 0.546844 11.6519 0.546844 11.9532C0.546844 12.2544 0.790925 12.4986 1.09232 12.4986H1.66544C1.95017 18.0848 6.41521 22.5497 12.0014 22.8346V23.4077C12.0014 23.7089 12.2455 23.9532 12.5469 23.9532C12.8481 23.9532 13.0922 23.7089 13.0922 23.4077V22.8346C18.6784 22.5495 23.1432 18.0846 23.4281 12.4986H24.0012C24.3026 12.4986 24.5467 12.2544 24.5467 11.9532C24.5469 11.6519 24.3026 11.4077 24.0014 11.4077ZM22.3374 11.4077H21.2464C20.9677 7.02486 17.475 3.5323 13.0923 3.25361V2.16266C18.0767 2.44465 22.0554 6.42336 22.3374 11.4077ZM19.6377 12.4986H20.1555C19.8803 16.2798 16.8733 19.2867 13.0922 19.5619V19.0441C13.0922 18.7429 12.8481 18.4986 12.5469 18.4986C12.2455 18.4986 12.0014 18.7429 12.0014 19.0441V19.5619C8.22026 19.2869 5.21312 16.2798 4.93809 12.4986H5.45591C5.75712 12.4986 6.0012 12.2544 6.0012 11.9532C6.0012 11.6519 5.75712 11.4077 5.45591 11.4077H4.93809C5.21293 7.62655 8.22008 4.61921 12.0014 4.34437V4.8622C12.0014 5.1634 12.2455 5.40767 12.5469 5.40767C12.8481 5.40767 13.0922 5.1634 13.0922 4.8622V4.34437C16.8733 4.6194 19.8805 7.62655 20.1555 11.4077H19.6377C19.3364 11.4077 19.0924 11.6519 19.0924 11.9532C19.0924 12.2544 19.3364 12.4986 19.6377 12.4986ZM12.0014 2.16266V3.25361C7.61858 3.5323 4.12602 7.02486 3.84715 11.4077H2.75638C3.03855 6.42336 7.01708 2.44483 12.0014 2.16266ZM2.75638 12.4986H3.84715C4.12602 16.8815 7.61858 20.374 12.0014 20.6527V21.7436C7.01689 21.4617 3.03837 17.483 2.75638 12.4986ZM13.0923 21.7436V20.6527C17.475 20.374 20.9677 16.8815 21.2464 12.4986H22.3374C22.0556 17.4831 18.0769 21.4618 13.0923 21.7436Z" fill="white"/>
<path d="M14.5706 12.128C15.5802 11.0103 15.4929 9.28583 14.3752 8.276C13.2577 7.26617 11.533 7.35369 10.5232 8.47119C9.58496 9.50958 9.58496 11.0896 10.5232 12.128C9.44854 12.5178 8.73186 13.5372 8.72857 14.6803V15.7713C8.72857 16.0726 8.97283 16.3167 9.27404 16.3167H15.8195C16.1207 16.3167 16.365 16.0726 16.365 15.7713V14.6803C16.3619 13.5372 15.6452 12.5178 14.5706 12.128ZM12.5469 8.6803C13.4505 8.6803 14.1833 9.41309 14.1833 10.3167C14.1833 11.2205 13.4505 11.9531 12.5469 11.9531C11.6431 11.9531 10.9105 11.2205 10.9105 10.3167C10.9116 9.41345 11.6436 8.68139 12.5469 8.6803ZM15.2741 15.2258H9.81951V14.6803C9.82061 13.777 10.5527 13.045 11.4559 13.0441H13.6376C14.5411 13.045 15.2731 13.777 15.2741 14.6803V15.2258Z" fill="white"/>
</g>
<defs>
<clipPath id="clip0_31_1696">
<rect width="24" height="24" fill="white" transform="translate(0.5)"/>
</clipPath>
</defs>
</svg>
