<svg width="25" height="24" viewBox="0 0 25 24" fill="none" xmlns="http://www.w3.org/2000/svg">
<g clip-path="url(#clip0_31_1569)">
<path d="M24.0015 11.4077H23.4283C23.1434 5.82149 18.6784 1.35663 13.0924 1.07172V0.498598C13.0924 0.197388 12.8481 -0.046875 12.5469 -0.046875C12.2457 -0.046875 12.0014 0.197388 12.0014 0.498598V1.07172C6.41524 1.35627 1.95002 5.8213 1.66547 11.4077H1.09235C0.790955 11.4077 0.546875 11.6519 0.546875 11.9532C0.546875 12.2544 0.790955 12.4986 1.09235 12.4986H1.66547C1.9502 18.0848 6.41524 22.5497 12.0014 22.8346V23.4077C12.0014 23.7089 12.2455 23.9532 12.5469 23.9532C12.8481 23.9532 13.0922 23.7089 13.0922 23.4077V22.8346C18.6784 22.5495 23.1432 18.0846 23.4282 12.4986H24.0013C24.3027 12.4986 24.5468 12.2544 24.5468 11.9532C24.5469 11.6519 24.3027 11.4077 24.0015 11.4077ZM22.3374 11.4077H21.2465C20.9678 7.02486 17.475 3.5323 13.0924 3.25361V2.16266C18.0767 2.44465 22.0554 6.42336 22.3374 11.4077ZM19.6377 12.4986H20.1555C19.8803 16.2798 16.8733 19.2867 13.0922 19.5619V19.0441C13.0922 18.7429 12.8481 18.4986 12.5469 18.4986C12.2455 18.4986 12.0014 18.7429 12.0014 19.0441V19.5619C8.2203 19.2869 5.21315 16.2798 4.93812 12.4986H5.45595C5.75715 12.4986 6.00123 12.2544 6.00123 11.9532C6.00123 11.6519 5.75715 11.4077 5.45595 11.4077H4.93812C5.21296 7.62655 8.22011 4.61921 12.0014 4.34437V4.8622C12.0014 5.1634 12.2455 5.40767 12.5469 5.40767C12.8481 5.40767 13.0922 5.1634 13.0922 4.8622V4.34437C16.8733 4.6194 19.8805 7.62655 20.1555 11.4077H19.6377C19.3365 11.4077 19.0924 11.6519 19.0924 11.9532C19.0924 12.2544 19.3365 12.4986 19.6377 12.4986ZM12.0014 2.16266V3.25361C7.61861 3.5323 4.12605 7.02486 3.84718 11.4077H2.75641C3.03858 6.42336 7.01711 2.44483 12.0014 2.16266ZM2.75641 12.4986H3.84718C4.12605 16.8815 7.61861 20.374 12.0014 20.6527V21.7436C7.01692 21.4617 3.0384 17.483 2.75641 12.4986ZM13.0924 21.7436V20.6527C17.475 20.374 20.9678 16.8815 21.2465 12.4986H22.3374C22.0556 17.4831 18.0769 21.4618 13.0924 21.7436Z" fill="#263238"/>
<path d="M14.5705 12.1281C15.5802 11.0104 15.4928 9.28589 14.3751 8.27606C13.2576 7.26623 11.533 7.35375 10.5231 8.47125C9.5849 9.50964 9.5849 11.0897 10.5231 12.1281C9.44849 12.5179 8.73181 13.5372 8.72852 14.6804V15.7713C8.72852 16.0727 8.97278 16.3168 9.27399 16.3168H15.8195C16.1207 16.3168 16.3649 16.0727 16.3649 15.7713V14.6804C16.3618 13.5372 15.6452 12.5179 14.5705 12.1281ZM12.5468 8.68036C13.4505 8.68036 14.1832 9.41315 14.1832 10.3168C14.1832 11.2206 13.4505 11.9532 12.5468 11.9532C11.643 11.9532 10.9104 11.2206 10.9104 10.3168C10.9115 9.41351 11.6436 8.68146 12.5468 8.68036ZM15.274 15.2258H9.81946V14.6804C9.82056 13.7771 10.5526 13.0451 11.4559 13.0441H13.6376C14.541 13.0451 15.2731 13.7771 15.274 14.6804V15.2258Z" fill="#263238"/>
</g>
<defs>
<clipPath id="clip0_31_1569">
<rect width="24" height="24" fill="white" transform="translate(0.5)"/>
</clipPath>
</defs>
</svg>
